<svg xmlns="http://www.w3.org/2000/svg" xmlns:xlink="http://www.w3.org/1999/xlink" aria-hidden="true" role="img" id="footer-icon-name"   preserveAspectRatio="xMidYMid meet" viewBox="0 0 24 24" width="16"  height="16" ><path fill="#626262" d="m12 14.121l-2.317 2.317a4 4 0 1 1-2.121-2.121L9.88 12L4.21 6.333a2 2 0 0 1 0-2.829l.708-.707L12 9.88l7.081-7.082l.708.707a2 2 0 0 1 0 2.829L14.12 12l2.317 2.317a4 4 0 1 1-2.121 2.121L12 14.12zM6 20a2 2 0 1 0 0-4a2 2 0 0 0 0 4zm12 0a2 2 0 1 0 0-4a2 2 0 0 0 0 4z"></path></svg>